<svg width="17" height="17" viewBox="0 0 17 17" fill="none" xmlns="http://www.w3.org/2000/svg">
<path d="M8.69576 0.998666C8.36106 1.35184 7.72025 2.22486 7.43861 2.71295C7.03861 3.39549 6.9529 3.81216 7.108 4.29629C7.30392 4.9074 7.68759 5.26851 8.41004 5.51057C8.43861 5.52248 8.45902 5.59787 8.45902 5.70105V5.87565L8.14474 5.89549C7.64678 5.92327 7.3529 6.09787 7.14474 6.48279C7.05086 6.66136 7.05086 6.66533 7.03861 8.35581L7.02637 10.0542H5.2631C3.76514 10.0542 3.45902 10.0622 3.27127 10.1177C2.55698 10.3201 2.02229 10.8399 1.78147 11.5622C1.72025 11.7526 1.708 11.9828 1.69167 13.3161L1.67535 14.8558H1.16923C0.740654 14.8558 0.65494 14.8677 0.634532 14.9193C0.622287 14.955 0.63045 15.1455 0.65494 15.3479C0.765144 16.209 1.34065 16.7963 2.19372 16.9193C2.37739 16.9431 4.77331 16.959 8.80596 16.959C12.8386 16.959 15.2345 16.9431 15.4182 16.9193C16.2713 16.7963 16.8468 16.209 16.957 15.3479C16.9815 15.1455 16.9896 14.955 16.9774 14.9193C16.957 14.8677 16.8713 14.8558 16.4427 14.8558H15.9366L15.9202 13.3161C15.8998 11.6296 15.8958 11.5979 15.6305 11.1098C15.3856 10.6574 14.8427 10.2447 14.3202 10.1098C14.1611 10.0661 13.708 10.0542 12.3488 10.0542H10.5856L10.5733 8.35581L10.5611 6.66136L10.4631 6.47486C10.2672 6.10184 9.96106 5.92327 9.47535 5.89549L9.1529 5.87565V5.70105C9.1529 5.59787 9.17331 5.52248 9.20596 5.51057C9.62637 5.36771 9.74066 5.30819 9.97739 5.09787C10.5447 4.58994 10.7202 3.91136 10.4468 3.24867C10.3162 2.93121 10.0182 2.42724 9.71208 2.0066C9.43453 1.62168 8.89168 0.947079 8.83453 0.911364C8.81413 0.89946 8.7529 0.939142 8.69576 0.998666ZM9.0427 2.28438C9.37331 2.72089 9.68351 3.24073 9.78964 3.54629C9.87535 3.78041 9.88351 3.8439 9.84678 4.01057C9.78555 4.28041 9.65086 4.4947 9.44678 4.64549C9.1978 4.82803 9.1529 4.8201 9.1529 4.57803C9.1529 4.3201 9.03045 4.18121 8.80596 4.18121C8.58147 4.18121 8.45902 4.3201 8.45902 4.57803C8.45902 4.8201 8.41413 4.82803 8.16515 4.64549C7.96106 4.4947 7.82637 4.28041 7.76515 4.01057C7.72841 3.8439 7.73657 3.78041 7.82637 3.53438C7.87943 3.37962 8.02229 3.09787 8.13657 2.91136C8.3529 2.56613 8.76923 1.99867 8.80596 1.99867C8.81821 1.99867 8.92433 2.12962 9.0427 2.28438ZM9.76923 6.70502L9.86719 6.80819V8.4193V10.0344H8.80596H7.74474V8.4193V6.80819L7.8427 6.70502L7.94066 6.60184H8.80596H9.67127L9.76923 6.70502ZM14.1366 10.7804C14.3896 10.8399 14.6672 11.0106 14.859 11.2209C15.059 11.4431 15.157 11.701 15.1815 12.0661L15.206 12.3915L14.9447 12.6455C14.6427 12.9352 14.41 13.0582 14.0305 13.1177C13.4509 13.213 12.7733 12.963 12.1243 12.4193C11.6876 12.0503 11.6182 12.0383 11.2998 12.2923C10.5978 12.8479 9.75698 13.1296 8.80596 13.1257C7.83861 13.1257 6.98147 12.832 6.29576 12.2764C6.00596 12.0383 5.92025 12.0542 5.48759 12.4193C4.83861 12.963 4.16106 13.213 3.58147 13.1177C3.20188 13.0582 2.96923 12.9352 2.66719 12.6455L2.40596 12.3915L2.43045 12.0661C2.45494 11.701 2.5529 11.4431 2.7529 11.2209C2.94065 11.0145 3.22229 10.8399 3.45902 10.7844C3.76923 10.709 13.8141 10.709 14.1366 10.7804ZM6.17331 13.0304C7.54066 14.086 10.0713 14.082 11.4468 13.0264L11.6019 12.9034L11.7896 13.0542C12.0876 13.3003 12.2631 13.4153 12.5651 13.5582C13.3121 13.9193 14.259 13.9074 14.9121 13.5304C15.0468 13.451 15.1651 13.3876 15.1774 13.3876C15.1856 13.3876 15.1937 13.7169 15.1937 14.1217V14.8558H8.80596H2.41821V14.1217C2.41821 13.7169 2.42637 13.3876 2.43453 13.3876C2.44678 13.3876 2.56514 13.451 2.69984 13.5304C3.3529 13.9074 4.29984 13.9193 5.04678 13.5582C5.37739 13.3995 5.50392 13.3161 5.78555 13.082C5.89576 12.9868 5.99372 12.9114 6.00188 12.9114C6.01004 12.9114 6.08759 12.963 6.17331 13.0304ZM16.0917 15.5979C16.0917 15.6098 16.0468 15.6971 15.9896 15.7883C15.8794 15.9749 15.6876 16.1296 15.4835 16.1971C15.2835 16.2645 2.32841 16.2645 2.12841 16.1971C1.92433 16.1296 1.73249 15.9749 1.62229 15.7883C1.56514 15.6971 1.52025 15.6098 1.52025 15.5979C1.52025 15.582 4.7978 15.5701 8.80596 15.5701C12.8141 15.5701 16.0917 15.582 16.0917 15.5979Z" fill="#201E33"/>
</svg>
