<svg width="66" height="67" viewBox="0 0 66 67" fill="none" xmlns="http://www.w3.org/2000/svg">
<path d="M0.0440518 0.71785C0.00489464 0.799355 -0.00815774 14.749 0.00489464 31.726L0.0440518 62.5828L24.5303 62.6177L49.0297 62.641L49.5257 63.1417C50.2174 63.8287 50.6482 64.2595 51.849 65.5287C52.6191 66.3438 52.9584 66.6 53.1542 66.5767C53.3239 66.5534 54.1984 65.715 55.4514 64.376C63.2046 56.0737 65.9586 53.0812 65.9978 52.9182C66.0369 52.7668 65.5931 52.7435 62.2517 52.7435H58.4535V46.5838C58.4535 43.1954 58.4143 40.3426 58.3752 40.2378C58.3099 40.0748 57.9705 40.0515 55.9605 40.0515H53.6241V28.489V16.938L44.4483 8.75226L35.2855 0.578125H17.6909C3.73788 0.578125 0.083209 0.613052 0.0440518 0.71785ZM38.1831 6.45838C39.9582 7.9954 43.0386 10.6502 45.0226 12.3619C47.0065 14.0736 49.1341 15.9017 49.7606 16.4257C50.3871 16.9497 50.8439 17.4271 50.7787 17.4853C50.7265 17.5319 47.0979 17.5668 42.7123 17.5552L34.7634 17.5202L34.7242 10.5571C34.7112 6.33029 34.7373 3.60558 34.8156 3.62887C34.8809 3.64051 36.3949 4.92136 38.1831 6.45838ZM40.9372 27.3478C40.9633 28.3376 40.9241 28.6985 40.8067 28.7684C40.5326 28.9198 12.7962 28.8848 12.6918 28.7451C12.6004 28.6054 12.6135 26.2067 12.7179 26.0553C12.7571 26.0088 19.1136 25.9738 26.8406 25.9855L40.898 26.0204L40.9372 27.3478ZM33.1057 35.8247L33.0666 37.1987L22.8596 37.2336L12.6396 37.2569V35.8596V34.4624H22.8857H33.1449L33.1057 35.8247ZM40.898 44.3016V45.6989H26.8014H12.7049L12.6657 44.4297C12.6527 43.7194 12.6657 43.079 12.6918 42.9975C12.7571 42.8694 15.2762 42.8461 26.8276 42.8694L40.898 42.9043V44.3016ZM55.1904 49.1921L55.2556 55.4799L57.5137 55.5148C59.0017 55.5381 59.7587 55.5847 59.7587 55.6662C59.7587 55.7361 59.3933 56.1669 58.9364 56.6327C58.4796 57.0868 57.096 58.5074 55.843 59.7882C54.603 61.069 53.4805 62.2102 53.3631 62.3266C53.1542 62.5246 52.9845 62.3848 49.8911 59.206C48.1029 57.3662 46.628 55.7943 46.6019 55.7011C46.5628 55.5614 46.9021 55.5381 48.5206 55.5381H50.4915V49.2736C50.4915 45.827 50.5307 42.9625 50.5829 42.9159C50.6351 42.881 51.6793 42.8577 52.8932 42.8694L55.1251 42.9043L55.1904 49.1921Z" fill="#E1E1E1"/>
</svg>
