<svg width="18" height="19" viewBox="0 0 18 19" fill="none" xmlns="http://www.w3.org/2000/svg">
<path d="M17.2764 0.602344C16.9527 0.704659 16.8027 1.0785 16.9685 1.38545C17.1817 1.7829 17.7699 1.74355 17.9476 1.32249C18.0187 1.15721 18.0187 1.05883 17.9397 0.893549C17.8252 0.649567 17.5331 0.52364 17.2764 0.602344Z" fill="#201E33"/>
<path d="M13.727 0.742896C13.6599 0.778312 13.569 0.900303 13.4822 1.06952L13.348 1.34105L13.119 1.36466C12.7992 1.40401 12.6887 1.45517 12.6176 1.60077C12.5347 1.77785 12.5742 1.88804 12.815 2.13596C13.0242 2.35239 13.0242 2.35239 12.9887 2.52947C12.9216 2.86003 12.9374 3.02137 13.0519 3.13549C13.1979 3.27716 13.3717 3.26929 13.6677 3.10795L13.9007 2.98202L14.1336 3.10795C14.4179 3.26929 14.5955 3.27716 14.7416 3.13943C14.8521 3.04105 14.8521 3.03318 14.8245 2.67508L14.7969 2.31304L14.9982 2.12021C15.2272 1.89591 15.2746 1.75818 15.1759 1.58896C15.093 1.4473 14.9982 1.40401 14.7179 1.36859C14.5995 1.35285 14.481 1.32924 14.4613 1.31743C14.4376 1.30169 14.3626 1.1797 14.2955 1.04591C14.2165 0.884562 14.1336 0.778312 14.0546 0.73896C13.9125 0.668127 13.8691 0.668127 13.727 0.742896ZM13.9915 1.95887C14.0546 2.00609 14.0625 2.03364 14.0231 2.11628C13.9638 2.24221 13.8257 2.24614 13.7822 2.12415C13.7586 2.06512 13.7664 2.0179 13.8099 1.96674C13.8809 1.88804 13.8928 1.8841 13.9915 1.95887Z" fill="#201E33"/>
<path d="M2.02369 1.03417C1.78682 1.17977 1.7118 1.53 1.85788 1.77399C2.07502 2.13209 2.61588 2.10848 2.80933 1.73463C2.93962 1.47885 2.88829 1.26241 2.64747 1.05778C2.48955 0.927918 2.21714 0.916113 2.02369 1.03417Z" fill="#201E33"/>
<path d="M9.90145 1.05714C9.66063 1.18307 9.64879 1.41918 9.86197 1.69071C10.4147 2.38724 10.4936 3.09164 10.1028 3.82752C10.0159 3.9928 9.63299 4.39812 8.49204 5.53539L6.99576 7.02683L6.66808 6.81827C6.2496 6.55067 5.53502 6.21225 5.22708 6.13354C4.93888 6.05877 4.58752 6.0509 4.37827 6.1178C4.11376 6.19257 3.82951 6.5428 3.82951 6.78285C3.82951 6.87336 3.79793 6.97174 2.90174 9.59258C2.4951 10.781 2.13979 11.8278 2.11215 11.9143C2.08057 12.0009 1.87922 12.5951 1.66209 13.2326C0.331628 17.1403 0 18.132 0 18.2303C0 18.3799 0.13423 18.5373 0.2882 18.5648C0.363211 18.5806 0.485598 18.5609 0.592192 18.5255C0.690891 18.4901 1.47258 18.2225 2.32929 17.9352C3.18599 17.644 4.627 17.16 5.52713 16.853C9.5264 15.4954 11.5833 14.8106 11.907 14.728C12.4242 14.6021 12.6532 14.1102 12.4992 13.4569C12.3887 12.9926 12.061 12.3157 11.6386 11.69C11.5556 11.568 11.4885 11.45 11.4885 11.4303C11.4885 11.4146 11.753 11.1352 12.0768 10.8204C12.7321 10.175 12.9374 10.0491 13.4586 9.95855C13.9323 9.87985 14.5048 10.0373 14.8838 10.356C15.1285 10.5606 15.2233 10.6039 15.3575 10.5764C15.5194 10.541 15.6339 10.3836 15.6339 10.1947C15.6339 10.0687 15.6062 10.0176 15.4602 9.87591C15.2312 9.65948 14.9193 9.47452 14.56 9.34466C14.2995 9.24628 14.2205 9.23841 13.7191 9.23841C13.2414 9.23841 13.1309 9.25022 12.9098 9.32892C12.4518 9.4942 12.1597 9.69883 11.5872 10.2616C11.2911 10.5528 11.0345 10.7928 11.0187 10.7928C11.0029 10.7928 10.9279 10.718 10.8529 10.6236C10.5489 10.2498 10.1541 9.80508 9.74748 9.38795C9.51061 9.14397 9.31716 8.93147 9.31716 8.91573C9.31716 8.89605 10.1383 8.06572 11.1451 7.07012C12.7835 5.43701 12.9887 5.24812 13.1625 5.1891C13.4033 5.11039 13.4743 5.11039 13.7349 5.1891C14.11 5.29928 14.3705 5.65345 14.3705 6.0509C14.3705 6.36965 14.2955 6.50345 13.8533 6.956C13.2927 7.53054 13.2572 7.61318 13.4428 7.83355C13.5612 7.97128 13.6915 8.01457 13.8415 7.95947C13.8968 7.93586 14.1416 7.71943 14.3784 7.47938C14.714 7.13308 14.8403 6.97567 14.9548 6.7435C15.093 6.46016 15.1009 6.42868 15.1009 6.05484C15.1009 5.6928 15.0891 5.63377 14.9746 5.39766C14.6824 4.77197 14.1337 4.4178 13.4625 4.4178C13.1309 4.4178 12.7914 4.51224 12.5545 4.66965C12.4795 4.72081 11.5951 5.58261 10.5884 6.57822C9.37638 7.79026 8.74865 8.38841 8.71312 8.36873C8.68943 8.34906 8.54336 8.231 8.38939 8.09721C8.23937 7.96734 8.00249 7.77452 7.86431 7.66827L7.61559 7.47151L9.05264 6.03516C9.84223 5.24419 10.5489 4.50831 10.616 4.40599C10.9437 3.92196 11.1214 3.29233 11.0819 2.76108C11.0306 2.08816 10.6081 1.2539 10.2173 1.04927C10.087 0.98237 10.0357 0.98237 9.90145 1.05714ZM5.27051 6.92452C5.42448 6.97961 5.62583 7.07012 5.72452 7.12521C6.11932 7.34558 6.43516 7.53841 6.43516 7.55808C6.43516 7.56989 6.29303 7.7273 6.11932 7.90438C5.82717 8.20346 5.80348 8.23887 5.80348 8.38841C5.80348 8.61665 5.93377 8.74651 6.16275 8.74651C6.31672 8.74651 6.3483 8.7229 6.71151 8.37267L7.09446 7.99489L7.48531 8.30971C7.6985 8.48285 7.95512 8.69536 8.05381 8.78193L8.23147 8.9354L7.82089 9.34466C7.59585 9.56503 7.39845 9.79327 7.37872 9.84443C7.32344 9.98216 7.40635 10.1907 7.54058 10.2616C7.77351 10.3836 7.83668 10.3521 8.31833 9.87591L8.77234 9.43517L9.21056 9.88772C9.68826 10.3796 10.4621 11.2808 10.4621 11.3437C10.4621 11.3674 10.3199 11.5287 10.1462 11.7018C9.97252 11.8789 9.81855 12.0639 9.8067 12.115C9.74748 12.3512 10.008 12.6069 10.2489 12.5479C10.3081 12.5322 10.4858 12.3944 10.6397 12.2449C10.9674 11.9301 10.9319 11.9222 11.2082 12.3748C11.5793 12.9887 11.8202 13.5829 11.7965 13.8505C11.7846 13.9961 11.7807 14 11.6109 14.0118C11.2872 14.0354 10.6318 13.7403 9.83039 13.213C7.49715 11.6704 4.77307 8.50253 4.55988 7.08192C4.50856 6.75137 4.67437 6.71595 5.27051 6.92452ZM4.45329 8.69536C4.72569 9.15184 5.18366 9.80115 5.54687 10.2498L5.73242 10.478H4.56383C3.92031 10.478 3.39524 10.4701 3.39524 10.4544C3.39524 10.4386 4.0427 8.5104 4.12561 8.28216C4.1335 8.25855 4.14929 8.23494 4.15719 8.23494C4.16903 8.23494 4.29932 8.4435 4.45329 8.69536ZM6.95234 11.7766L7.509 12.3275H5.13233C3.24916 12.3275 2.75962 12.3157 2.77146 12.2764C2.7833 12.2528 2.86621 12.0049 2.95701 11.7255L3.12677 11.2257H4.76123H6.39568L6.95234 11.7766ZM8.81972 13.4018C9.26583 13.7403 9.96857 14.1928 10.237 14.3188C10.316 14.3581 10.3831 14.3975 10.3831 14.4132C10.3831 14.425 10.0278 14.5549 9.59746 14.7005L8.81182 14.9641H5.32973C2.39246 14.9641 1.85159 14.9563 1.86738 14.909C1.90686 14.8067 2.48721 13.1028 2.48721 13.087C2.48721 13.0831 3.81372 13.0752 5.43632 13.0752H8.38149L8.81972 13.4018ZM6.50622 15.7315C6.49832 15.7433 5.99299 15.9204 5.385 16.125C1.59102 17.4039 1.01067 17.5968 0.990935 17.5771C0.979091 17.5653 1.10937 17.1403 1.28308 16.6326L1.59892 15.7118H4.06244C5.41658 15.7118 6.51806 15.7197 6.50622 15.7315Z" fill="#201E33"/>
<path d="M5.94483 1.35443C5.88166 1.40165 5.74348 1.6299 5.6211 1.88568C5.50266 2.1336 5.39211 2.3343 5.37632 2.3343C5.21446 2.3343 4.41697 2.47203 4.33801 2.51138C4.21168 2.57828 4.12482 2.76717 4.16035 2.91277C4.17615 2.9718 4.34591 3.16462 4.56699 3.37319L4.94205 3.73129L4.85519 4.235C4.76044 4.77018 4.76834 4.8843 4.90257 5.01023C5.04864 5.14403 5.2263 5.11255 5.71585 4.86463L6.15802 4.63639L6.60414 4.86463C7.13316 5.13616 7.27923 5.1519 7.43715 4.96694C7.55954 4.82134 7.55954 4.84495 7.45689 4.23106L7.37399 3.73916L7.75299 3.36532C7.96223 3.16069 8.14383 2.95212 8.15568 2.90096C8.19121 2.76717 8.10041 2.57828 7.97802 2.51138C7.89511 2.47203 7.10158 2.3343 6.93971 2.3343C6.91997 2.3343 6.80943 2.1336 6.69099 1.88568C6.40674 1.2836 6.20934 1.14587 5.94483 1.35443ZM6.2804 2.70814C6.32383 2.80652 6.39884 2.91277 6.45017 2.94425C6.52123 2.99147 6.8726 3.08198 6.97919 3.08198C6.99498 3.08198 6.92392 3.16462 6.82522 3.26694C6.60019 3.49911 6.5844 3.5424 6.63177 3.79819C6.65546 3.90837 6.66335 4.01069 6.65151 4.0225C6.63967 4.03037 6.53307 3.99495 6.41069 3.93592C6.29225 3.87689 6.17381 3.82967 6.15012 3.82967C6.12643 3.82967 6.01194 3.87689 5.89745 3.93592C5.78296 3.99495 5.67637 4.03037 5.66452 4.0225C5.65268 4.01069 5.66058 3.90837 5.68426 3.79819C5.73164 3.5424 5.71585 3.49911 5.49476 3.27087L5.3171 3.08592L5.47107 3.06231C5.8027 3.00721 5.89745 2.95212 6.01194 2.73569C6.07511 2.62157 6.14223 2.53106 6.16196 2.53106C6.18565 2.53106 6.23698 2.60976 6.2804 2.70814Z" fill="#201E33"/>
<path d="M0.81251 6.12212C0.729603 6.14574 0.595373 6.22837 0.512466 6.31101C0.161099 6.66125 0.247953 7.23579 0.682228 7.46009C1.02175 7.63324 1.42049 7.53486 1.63763 7.22398C1.73238 7.08231 1.75607 7.01541 1.75607 6.83046C1.75607 6.33069 1.30206 5.99226 0.81251 6.12212Z" fill="#201E33"/>
<path d="M16.5237 6.12836C16.1131 6.27397 16.0342 6.758 16.3698 7.05314C16.729 7.36795 17.3054 7.05314 17.2423 6.57304C17.1909 6.20313 16.8711 6.00244 16.5237 6.12836Z" fill="#201E33"/>
<path d="M14.9109 12.0179C14.8753 12.0415 14.7608 12.2225 14.6622 12.4193C14.5595 12.62 14.4726 12.7853 14.4687 12.7931C14.4608 12.801 14.2871 12.8325 14.0739 12.864C13.6278 12.9309 13.5646 12.9584 13.4778 13.1198C13.383 13.3047 13.4343 13.4188 13.7699 13.7533L14.07 14.0563L14.0028 14.4066C13.916 14.863 13.916 14.8985 14.0384 15.0401C14.1884 15.2211 14.3582 15.2054 14.7806 14.9811L15.1201 14.804L15.4517 14.9811C15.8426 15.1936 16.0439 15.2172 16.1742 15.0716C16.3005 14.9339 16.3084 14.863 16.2374 14.4498L16.1742 14.0603L16.4743 13.7494C16.7467 13.47 16.7783 13.4228 16.7783 13.285C16.7783 13.0332 16.6638 12.9387 16.2848 12.8836C15.7005 12.7931 15.7676 12.8325 15.5978 12.4704C15.4083 12.0612 15.3254 11.9746 15.132 11.9746C15.049 11.9746 14.9504 11.9943 14.9109 12.0179ZM15.4636 13.5093C15.5899 13.5093 15.5939 13.5448 15.4873 13.6982C15.4123 13.8084 15.3965 13.8753 15.4123 13.9737C15.432 14.1036 15.4281 14.1075 15.3254 14.076C15.1912 14.0367 15.049 14.0367 14.9148 14.076C14.8043 14.1075 14.8043 14.1036 14.8043 13.9304C14.8043 13.8123 14.7766 13.7218 14.7214 13.651C14.6464 13.5526 14.6424 13.5487 14.7135 13.5251C14.9069 13.466 14.9701 13.4228 15.0333 13.3165L15.0964 13.2024L15.2425 13.3559C15.3215 13.4385 15.4202 13.5093 15.4636 13.5093Z" fill="#201E33"/>
<path d="M7.55399 17.2131C7.38818 17.3193 7.28948 17.5318 7.31711 17.7286C7.34475 17.945 7.44345 18.0709 7.64479 18.1575C7.78692 18.2205 7.84614 18.2283 7.96458 18.1969C8.16987 18.1418 8.26857 18.0631 8.34753 17.9017C8.43438 17.7207 8.42649 17.583 8.32384 17.4019C8.17777 17.1383 7.81061 17.0478 7.55399 17.2131Z" fill="#201E33"/>
<path d="M13.5909 17.2125C13.2909 17.362 13.1448 17.7122 13.2435 18.0546C13.3659 18.4835 13.8239 18.696 14.2305 18.5111C14.5266 18.3773 14.7201 18.0389 14.6648 17.7477C14.57 17.244 14.0489 16.9842 13.5909 17.2125Z" fill="#201E33"/>
</svg>
