<svg width="65" height="64" viewBox="0 0 65 64" fill="none" xmlns="http://www.w3.org/2000/svg">
<path d="M16.4355 -2.10214C16.0098 -1.79601 15.7041 -1.09304 15.8133 -0.628165C15.9443 -0.106604 16.3264 0.233545 17.5599 0.936519C21.6755 3.28355 26.315 7.26329 29.7646 11.4244C32.1007 14.225 33.1706 16.6514 32.7011 18.1027C32.6247 18.3408 32.2099 18.9417 31.7623 19.452C31.3147 19.9622 30.9545 20.427 30.9545 20.4951C30.9545 20.5744 40.7248 30.8129 41.609 31.6633C41.6309 31.686 42.2531 31.0964 42.9627 30.3594L44.2727 28.9988L45.3206 30.0759C45.8883 30.6655 46.4341 31.3231 46.5215 31.5386C46.7398 32.0828 46.707 32.9785 46.445 33.7042C46.1285 34.5772 46.183 35.5523 46.5979 36.1646C46.7616 36.414 48.0825 37.8427 49.5453 39.328C52.3072 42.1739 52.6129 42.412 53.7809 42.6728C54.556 42.8428 55.3529 42.7181 56.1498 42.2873C56.7066 41.9925 57.569 41.1648 61.1278 37.4912C64.9376 33.5568 65.4616 32.9785 65.7782 32.3096C66.1057 31.6066 66.1275 31.5159 66.0839 30.5068C66.0293 28.8287 65.9419 28.6813 62.6342 25.2572C61.095 23.6585 59.6868 22.2638 59.523 22.1731C58.9772 21.8897 58.2567 21.867 57.6126 22.1278C56.9904 22.3886 55.8551 22.4453 55.3638 22.2525C55.211 22.1958 54.6106 21.6629 54.032 21.0847L52.984 20.0189L53.2788 19.2479C53.8028 17.8873 53.7373 16.7081 53.0605 15.5062C52.9185 15.2568 50.0038 12.1388 46.576 8.58987C41.1287 2.93206 40.2335 2.05901 39.4476 1.56013C38.4541 0.936519 37.0677 0.346928 35.3757 -0.185972C31.6859 -1.33114 25.5181 -2.15883 19.5467 -2.30623L16.8176 -2.37426L16.4355 -2.10214Z" fill="#E1E1E1"/>
<path d="M14.786 37.1839C5.88906 46.4359 0.747379 51.8556 0.572714 52.1844C-0.0276946 53.3069 -0.0604442 54.6675 0.496299 55.8694C0.758295 56.4476 1.30412 57.0599 3.95684 59.7924C7.49379 63.432 7.61387 63.5341 9.03302 63.6134C10.0155 63.6701 10.6378 63.5227 11.2927 63.0692C11.7294 62.7744 39.5775 33.9865 39.5775 33.8277C39.5775 33.7144 28.9448 22.7049 28.8247 22.7049C28.7592 22.7049 22.4494 29.2244 14.786 37.1839Z" fill="#E1E1E1"/>
</svg>
