<svg width="66" height="67" viewBox="0 0 66 67" fill="none" xmlns="http://www.w3.org/2000/svg">
<path d="M43.7808 0.866213C43.449 1.01724 40.8101 2.64834 37.8997 4.50599C35.0043 6.36364 31.355 8.68947 29.7867 9.67116C28.2033 10.683 26.8009 11.6949 26.5898 11.9668C24.8255 14.2775 26.2279 17.4491 29.1534 17.7512C30.1788 17.8569 30.6161 17.6606 33.9789 15.5008C35.4718 14.5494 39.0307 12.2839 41.8807 10.4716C44.7308 8.65927 47.2793 6.98285 47.5658 6.74121C48.6063 5.81994 48.9984 4.0378 48.4405 2.72386C47.7166 0.971931 45.4848 0.0808659 43.7808 0.866213Z" fill="#E1E1E1"/>
<path d="M45.7421 10.8763C44.5055 11.6315 41.1427 13.6704 38.2775 15.4223C35.4124 17.1591 32.9845 18.6694 32.879 18.7751C32.698 18.9262 33.4218 20.1948 37.0108 26.1151C39.3934 30.0569 41.4292 33.3645 41.5348 33.4853C41.7007 33.6665 42.1229 33.4551 44.3396 32.1109C45.7722 31.235 49.2255 29.1508 52.0002 27.4592C54.7749 25.7828 57.1122 24.3481 57.1876 24.2877C57.248 24.2272 56.6297 23.0492 55.8154 21.69C54.986 20.3458 53.2367 17.4612 51.9248 15.3015C48.562 9.74364 48.4413 9.5624 48.2151 9.5322C48.0945 9.50199 46.9937 10.1061 45.7421 10.8763Z" fill="#E1E1E1"/>
<path d="M60.1593 25.0897C59.7823 25.1652 58.8775 25.6183 58.1235 26.0865C56.6909 27.0077 49.0907 31.8406 46.12 33.7436C42.6818 35.9184 42.4706 36.0996 42.0183 36.9605C41.0682 38.7728 41.8825 41.0987 43.7374 41.8689C44.5818 42.2314 45.939 42.1861 46.7382 41.7632C47.1002 41.582 50.8701 39.2259 55.0925 36.5376C60.3252 33.215 63.0094 31.4329 63.4618 30.9345C64.5626 29.8018 64.8039 28.4576 64.1554 27.0832C63.4316 25.5126 61.8482 24.7272 60.1593 25.0897Z" fill="#E1E1E1"/>
<path d="M30.8892 26.7818C29.1852 27.7333 21.9921 31.7356 14.9046 35.6774C7.81706 39.6192 1.72481 43.0778 1.39305 43.3798C0.654142 44.0141 0.126348 45.0562 0.0207895 46.1134C-0.295887 49.2397 3.06691 51.7166 5.90192 50.448C6.294 50.2818 12.0696 46.491 18.7499 42.0508C25.4303 37.5954 32.2464 33.0646 33.9052 31.9772C35.5639 30.8898 36.9211 29.9383 36.9211 29.893C36.9211 29.7722 34.2822 25.3622 34.1012 25.1809C34.0409 25.1205 32.5932 25.8303 30.8892 26.7818Z" fill="#E1E1E1"/>
<path d="M34.5814 59.7668C33.2393 60.386 32.998 61.0354 32.998 64.1617V66.5781L49.4803 66.5479L65.9475 66.5026L65.9927 64.5543C66.0379 62.1379 65.857 61.1562 65.2236 60.4313C64.349 59.4345 65.1935 59.4798 49.4803 59.4798C35.9386 59.4798 35.1545 59.4949 34.5814 59.7668Z" fill="#E1E1E1"/>
</svg>
