<svg width="64" height="64" viewBox="0 0 64 64" fill="none" xmlns="http://www.w3.org/2000/svg">
<path d="M19.4738 0.812717C18.6478 1.08355 18.3498 1.57105 18.1467 2.97939C18.0655 3.57522 17.3613 9.20855 16.5894 15.5054C15.8175 21.8023 14.7207 30.6586 14.1519 35.2086C13.5832 39.745 13.028 43.8075 12.9196 44.2002C12.6353 45.1752 12.0259 46.394 11.3488 47.2877C10.753 48.0731 10.2248 48.52 5.02484 52.745C1.42275 55.6565 0.881086 56.2117 0.461294 57.295C0.149836 58.1211 0.244628 59.9086 0.664419 60.7075C1.08421 61.5336 1.93734 62.3325 2.83109 62.7523L3.58942 63.1044L10.3738 63.145C17.7946 63.1856 18.8915 63.1179 20.9498 62.4273C24.4707 61.2356 26.9894 59.0825 28.3842 56.0763C29.3457 53.9908 29.3186 54.3023 29.3186 42.3179C29.3186 31.6471 29.3186 31.5523 29.0342 30.9429C28.6686 30.1711 27.7342 29.2502 26.9894 28.9388L26.4071 28.7086V17.0627C26.4071 4.40126 26.4207 4.55022 25.6623 3.25022C25.1748 2.42418 24.0915 1.46272 23.1842 1.04293C22.2228 0.609592 20.4759 0.501259 19.4738 0.812717ZM23.78 28.695C24.5925 29.5075 24.3759 30.3742 23.1436 31.2002C21.8165 32.094 21.8842 31.7283 21.803 38.8919L21.7353 45.1617L21.3561 45.5273C21.0446 45.8388 20.8686 45.9065 20.3134 45.9065C19.7582 45.9065 19.5821 45.8388 19.2707 45.5273L18.8915 45.1617V38.6211C18.8915 32.1075 18.8915 32.094 19.203 31.3221C19.8123 29.819 21.654 28.2346 22.805 28.2346C23.2113 28.2346 23.4144 28.3294 23.78 28.695Z" fill="#E1E1E1"/>
<path d="M40.8294 0.771503C39.1773 0.988167 37.6742 2.11213 36.9159 3.72358L36.4961 4.60379L36.4555 16.6288L36.4284 28.6403L35.7784 28.9382C34.9117 29.3444 33.9773 30.333 33.6794 31.159C33.4628 31.7684 33.4492 32.6486 33.4492 42.2903C33.4492 51.2955 33.4763 52.9069 33.6659 53.7871C34.3565 57.1319 36.5909 59.9892 39.7867 61.6007C40.9107 62.1694 42.8065 62.7517 44.2419 62.9684C46.2596 63.2798 58.2846 63.2663 59.3138 62.9548C61.6159 62.2642 62.9971 59.935 62.4419 57.66C62.1169 56.36 61.6836 55.9132 56.8357 52.0403C54.3305 50.0225 52.0013 48.0725 51.6628 47.6934C50.9857 46.908 50.3492 45.784 49.9701 44.6871C49.794 44.1861 49.3336 40.9361 48.6294 35.235C46.8419 20.9621 44.9596 5.79546 44.7565 4.03504C44.5263 2.08504 44.269 1.35379 43.7138 1.06942C43.1721 0.785042 41.8044 0.649628 40.8294 0.771503ZM41.5471 28.8569C42.4409 29.4798 43.2128 30.4548 43.6326 31.484C43.9305 32.2017 43.944 32.3913 43.9846 38.2819C44.0117 42.4392 43.9846 44.4975 43.8763 44.8767C43.5513 46.0955 41.9128 46.3663 41.2086 45.31C40.9919 44.985 40.9648 44.3892 40.8971 38.7288C40.843 34.3548 40.7888 32.4184 40.6669 32.2288C40.4503 31.8361 39.8138 31.2809 39.3263 31.0371C38.3784 30.5632 38.2294 29.2361 39.0284 28.5725C39.6513 28.0444 40.5044 28.1392 41.5471 28.8569Z" fill="#E1E1E1"/>
<path d="M2.87202 3.4931C2.70952 3.58789 2.47931 3.80456 2.35743 3.96706C2.10014 4.34622 2.07306 5.25352 2.33035 5.63268C2.42514 5.79518 3.96889 6.81081 5.75639 7.89414C8.73556 9.70872 9.06056 9.87122 9.65639 9.88477C10.2387 9.88477 10.3606 9.8306 10.7126 9.43789C11.2001 8.89622 11.2408 8.13789 10.821 7.59622C10.672 7.40664 9.0741 6.36393 7.27306 5.2806C3.90118 3.26289 3.5491 3.12747 2.87202 3.4931Z" fill="#E1E1E1"/>
<path d="M58.6362 3.42634C58.5279 3.4805 56.9842 4.3878 55.2373 5.44405C52.5019 7.09613 52.0008 7.44821 51.8112 7.85446C51.4998 8.50446 51.6352 9.01905 52.2175 9.54717C53.0435 10.2649 53.2602 10.1972 56.8081 8.05759C58.5415 7.01488 60.1258 5.97217 60.3154 5.74196C61.0737 4.84821 60.5456 3.50759 59.381 3.38571C59.0831 3.34509 58.7446 3.37217 58.6362 3.42634Z" fill="#E1E1E1"/>
<path d="M0.677544 18.8499C0.122335 19.053 0.000460409 19.3238 0.000460409 20.3124C0.000460409 21.7749 -0.134956 21.7343 4.239 21.7343C7.63796 21.7343 7.84109 21.7207 8.16609 21.4499C8.69421 21.0436 8.89734 20.2718 8.61296 19.6759C8.19317 18.7957 8.00359 18.7551 4.239 18.7686C2.39734 18.7686 0.785877 18.8093 0.677544 18.8499Z" fill="#E1E1E1"/>
<path d="M54.8167 18.9719C54.3563 19.2156 54.0312 19.8115 54.0312 20.3937C54.0312 20.6917 54.1667 20.949 54.4917 21.274L54.9521 21.7344H58.5406H62.1292L62.549 21.3823C63.3208 20.7458 63.226 19.5271 62.3729 19.0125C61.9938 18.7823 61.6417 18.7552 58.5677 18.7552C55.8323 18.7687 55.1146 18.8094 54.8167 18.9719Z" fill="#E1E1E1"/>
<path d="M4.86152 33.1771C3.71048 33.8949 2.64069 34.6396 2.47819 34.8428C1.5709 35.9396 2.81673 37.6594 4.11673 37.1178C4.36048 37.023 5.45735 36.373 6.55423 35.6824C8.2334 34.6396 8.59902 34.3417 8.76152 33.949C9.16777 32.9605 8.43652 31.8907 7.36673 31.8907C7.06881 31.8907 6.32402 32.2699 4.86152 33.1771Z" fill="#E1E1E1"/>
<path d="M54.7496 32.0789C53.9913 32.4309 53.6798 33.433 54.1132 34.1778C54.3569 34.5976 58.3382 37.1434 58.934 37.2653C59.8413 37.4414 60.7757 36.5205 60.6267 35.5862C60.5725 35.3289 60.4371 34.9903 60.3017 34.8414C59.9225 34.4216 56.0225 32.0382 55.5892 31.957C55.359 31.9164 54.9934 31.9705 54.7496 32.0789Z" fill="#E1E1E1"/>
</svg>
