<svg width="66" height="67" viewBox="0 0 66 67" fill="none" xmlns="http://www.w3.org/2000/svg">
<path d="M27.8322 0.682358C27.7366 0.734467 27.5629 0.856071 27.4586 0.960297C27.0069 1.36852 27.0069 1.3251 27.0069 7.10107V12.4775L14.7407 12.4949C3.0044 12.5209 2.44843 12.5296 2.03144 12.686C1.79689 12.7728 1.47547 12.9292 1.32779 13.0334C0.902119 13.32 0.35483 14.0322 0.163714 14.5447C-0.0100287 15.005 -0.0100287 15.2482 0.00734556 39.6463L0.0334069 64.2875L0.259272 64.7652C0.511199 65.3038 1.15405 65.9899 1.64052 66.2418C1.81427 66.3287 2.21387 66.4503 2.51792 66.5024C2.91753 66.5719 11.8218 66.5892 33.3485 66.5719L63.6231 66.5458L64.2052 66.2592C65.0739 65.8336 65.6994 65.0432 65.9252 64.0704C65.986 63.8011 66.0121 56.262 65.9947 39.3162C65.9687 15.1527 65.9687 14.9529 65.7949 14.5447C65.3345 13.4763 64.5353 12.7989 63.5102 12.5991C63.0498 12.5036 60.4176 12.4862 50.966 12.4775H39.0038L38.9778 7.06632L38.9517 1.66383L38.7432 1.30772C38.6303 1.10796 38.3957 0.864754 38.2133 0.760529C37.8919 0.578125 37.8224 0.578125 32.9489 0.578125C29.5001 0.586815 27.9538 0.612869 27.8322 0.682358ZM33.696 5.2597C34.7993 5.84164 34.6603 7.46587 33.4788 7.91752C32.8012 8.17809 32.1063 7.94358 31.7414 7.32689C31.3244 6.5973 31.5329 5.67662 32.2105 5.28576C32.6101 5.05125 33.279 5.03388 33.696 5.2597ZM26.8679 15.5696C26.9809 15.613 27.0069 15.7781 27.0069 16.4816C27.0069 17.0201 27.0504 17.4544 27.1285 17.6281C27.2762 17.9929 27.7019 18.349 28.1189 18.4706C28.336 18.5401 29.9692 18.5575 33.1835 18.5401L37.9266 18.514L38.3002 18.2535C38.7953 17.906 38.9256 17.576 38.9778 16.4903C39.0299 15.4306 38.9778 15.4654 40.3069 15.5435C41.5839 15.6217 42.3744 16.0213 42.9217 16.8464C43.4082 17.5847 43.469 17.8452 43.469 19.3392C43.469 20.6768 43.4603 20.6855 43.1823 21.2587C42.8696 21.9101 42.3657 22.4226 41.6708 22.7874L41.2104 23.0306H33.001H24.7917L24.3052 22.8048C23.645 22.4921 23.1846 22.0578 22.8284 21.4064L22.533 20.8592V19.2957C22.533 17.8279 22.5417 17.7063 22.7329 17.3241C23.1846 16.4295 24.062 15.7433 24.9568 15.5957C25.4259 15.5175 26.6942 15.5001 26.8679 15.5696ZM22.0987 27.7382C22.8892 27.9119 23.2888 28.1204 23.8535 28.6589C24.2705 29.0498 24.3747 29.1019 24.8612 29.1714C25.6083 29.2669 26.3988 29.6838 26.7897 30.1789C27.7453 31.4123 27.8756 33.7487 27.1459 36.5542C27.0156 37.0406 27.0156 37.0579 27.2415 37.553C27.4065 37.9091 27.4934 38.2392 27.5108 38.6735C27.5542 39.4812 27.337 40.0111 26.7029 40.6104C26.3554 40.9404 26.2251 41.1402 26.1469 41.4616C25.9471 42.2433 25.4432 43.0511 24.7135 43.7807L24.0185 44.4755L24.0099 45.8652C24.0099 47.2289 24.0185 47.2723 24.2444 47.6632C24.7048 48.4449 25.7994 49.0963 28.1362 49.9562C31.6198 51.2503 33.14 52.3013 33.9219 53.9516C34.2172 54.5683 34.53 55.7582 34.4344 55.9145C34.3997 55.958 29.2916 55.9927 20.9607 55.9927H7.54777V55.6627C7.55645 55.1328 7.76494 54.4032 8.11243 53.7518C8.81609 52.4055 10.319 51.3024 12.7166 50.3731C16.3913 48.9486 17.0254 48.6099 17.6248 47.7847L17.9289 47.3592V45.8739V44.3973L17.2513 43.7546C16.5476 43.0771 15.9135 42.113 15.705 41.4095C15.6268 41.1489 15.4617 40.9057 15.1837 40.6451C14.5756 40.0806 14.3845 39.6115 14.3758 38.7082C14.3672 37.9526 14.4367 37.7181 14.7841 37.3446C14.9579 37.1535 14.9579 37.1274 14.8189 36.5629C14.4975 35.2166 14.3932 34.2612 14.4367 33.106C14.5148 31.3862 14.9058 30.3352 15.8613 29.319C16.8082 28.3115 18.1374 27.773 20.0746 27.5993C20.9172 27.5298 21.2734 27.5471 22.0987 27.7382ZM57.49 33.6705C58.6107 33.9919 58.7931 35.5901 57.7854 36.2762L57.464 36.4934H47.995C37.3098 36.4934 38.1699 36.5542 37.7355 35.8159C37.2664 35.0168 37.5791 34.0006 38.387 33.6792C38.6824 33.5663 57.0817 33.5489 57.49 33.6705ZM57.6811 41.2531C58.6367 41.7569 58.7149 43.1292 57.8288 43.7633L57.5421 43.9631L48.0471 43.9891C37.4488 44.0152 38.2654 44.0586 37.7789 43.3811C37.249 42.6602 37.527 41.5832 38.3262 41.2184C38.6737 41.062 39.0386 41.0534 47.995 41.0534H57.2989L57.6811 41.2531ZM57.4205 48.6186C57.8114 48.7489 58.2545 49.1831 58.3761 49.5479C58.6888 50.486 58.0634 51.398 57.0383 51.5196C56.7864 51.5456 52.521 51.563 47.5433 51.5456L38.5 51.5196L38.1786 51.2677C37.7094 50.9116 37.5183 50.5555 37.5183 50.043C37.5183 49.4785 37.8484 48.9399 38.3436 48.7054C38.6824 48.5404 38.9343 48.5317 47.9081 48.523C54.5625 48.523 57.2034 48.5491 57.4205 48.6186Z" fill="#E1E1E1"/>
</svg>
