<svg width="18" height="18" viewBox="0 0 18 18" fill="none" xmlns="http://www.w3.org/2000/svg">
<path d="M8.46683 0.623308C7.8971 0.701982 7.72472 0.734035 7.40918 0.815622C7.25141 0.859331 7.09072 0.900124 7.04981 0.908865C6.91542 0.935091 6.16162 1.22647 5.86653 1.36634C3.26039 2.58141 1.43433 5.07275 1.04282 7.95162C1.00484 8.22844 0.990234 8.52565 0.990234 9.05888C0.990234 9.87185 1.03406 10.2856 1.18014 10.9092C1.30578 11.4482 1.36421 11.6405 1.52782 12.0747C2.2787 14.0561 3.76876 15.7112 5.6474 16.6494C6.0915 16.8709 6.18207 16.9117 6.61156 17.0661C7.97015 17.5556 9.39009 17.6839 10.8509 17.4537C14.4914 16.8767 17.3809 13.9337 17.9068 10.2681C18.1464 8.58684 17.8659 6.82397 17.1179 5.3146C16.6446 4.36468 16.1538 3.69741 15.3708 2.93981C14.1846 1.78885 12.6536 0.996281 11.0759 0.707811C10.2286 0.553377 9.20894 0.521324 8.46683 0.623308ZM10.6143 1.37799C10.8305 1.41005 11.0759 1.45375 11.1548 1.47124C14.167 2.14725 16.4839 4.50455 17.0946 7.51455C17.2027 8.04487 17.2319 8.37122 17.2319 9.07345C17.2319 9.77278 17.2056 10.0554 17.0946 10.6032C16.7352 12.3952 15.7506 14.0008 14.3248 15.1342C14.056 15.347 13.5272 15.717 13.4892 15.717C13.4834 15.717 13.422 15.752 13.3548 15.7928C12.9692 16.0375 12.1686 16.3755 11.6223 16.5271C10.8363 16.7485 10.3835 16.8068 9.48942 16.8068C8.58078 16.8097 8.08409 16.7427 7.29816 16.5125C5.23545 15.9152 3.4912 14.4553 2.52412 12.5176C2.44523 12.3632 2.35466 12.165 2.3196 12.0805C2.28746 11.999 2.23195 11.8678 2.20273 11.7892C2.13846 11.6289 1.98945 11.1481 1.9281 10.8946C1.68852 9.92429 1.65346 8.67717 1.83752 7.64567C1.90472 7.28144 2.09755 6.60543 2.23487 6.24994C3.03542 4.19859 4.73292 2.52896 6.76933 1.78302C7.46469 1.5266 7.94093 1.4217 8.89048 1.31098C9.16804 1.27892 10.2374 1.31972 10.6143 1.37799Z" fill="#201E33"/>
<path d="M6.24289 6.50585C5.93903 6.58452 5.67608 6.80597 5.52707 7.10901C5.4365 7.29259 5.42773 7.33047 5.42773 7.58688C5.42773 7.82582 5.43942 7.88701 5.5037 8.02687C5.71114 8.46686 6.16692 8.72911 6.63439 8.67958C7.03758 8.63587 7.43786 8.32409 7.56641 7.95403C7.63361 7.7588 7.63361 7.41497 7.56641 7.21974C7.46707 6.93418 7.22165 6.67194 6.94409 6.55247C6.81554 6.49711 6.38605 6.46797 6.24289 6.50585Z" fill="#201E33"/>
<path d="M12.1298 6.51812C11.8347 6.60262 11.5572 6.84738 11.4286 7.13877C11.2855 7.45929 11.3381 7.95464 11.5397 8.2198C11.6828 8.40629 11.7705 8.47622 11.9838 8.58403C12.1561 8.67145 12.197 8.68019 12.4366 8.67728C12.6733 8.67728 12.7229 8.66854 12.8982 8.58695C13.1378 8.47331 13.3219 8.29556 13.4358 8.06537C13.5147 7.90802 13.5206 7.86723 13.5206 7.57293C13.5206 7.26406 13.5176 7.24658 13.4212 7.06884C13.3044 6.85613 13.1349 6.69004 12.9216 6.58222C12.7346 6.48898 12.346 6.45693 12.1298 6.51812Z" fill="#201E33"/>
<path d="M4.51797 10.5722C4.39818 10.6218 4.30469 10.7733 4.30469 10.9103C4.30469 11.0472 4.40695 11.1958 4.78092 11.6096C5.41493 12.306 6.16288 12.8713 6.97511 13.2646C7.58866 13.5619 8.21975 13.7542 8.80409 13.8212C9.19851 13.8678 10.1627 13.8445 10.4811 13.7804C11.3722 13.5997 12.2458 13.2122 13.0113 12.6586C13.5168 12.2914 14.2297 11.6125 14.516 11.2249C14.6299 11.0705 14.6475 11.0268 14.6475 10.9073C14.6475 10.7383 14.554 10.6101 14.3991 10.5577C14.2209 10.4994 14.1216 10.5577 13.8469 10.8724C12.836 12.0437 11.5592 12.8276 10.3088 13.0519C9.8968 13.1248 9.07288 13.1248 8.66385 13.0519C7.39291 12.8276 6.08107 12.0146 5.09939 10.8432C4.83643 10.5344 4.72541 10.4819 4.51797 10.5722Z" fill="#201E33"/>
</svg>
