<svg width="66" height="67" viewBox="0 0 66 67" fill="none" xmlns="http://www.w3.org/2000/svg">
<path d="M41.3215 1.06849C41.1118 1.3468 40.1551 2.57933 39.1984 3.82512C38.2417 5.05764 37.3899 6.11789 37.3112 6.1709C37.2195 6.21066 36.8919 6.1974 36.5642 6.13114C34.9916 5.79981 29.5659 5.86608 28.6354 6.22391C28.5175 6.27692 27.8098 5.41547 26.6958 3.91788C24.2975 0.697403 23.9175 0.525116 21.4012 1.45283C20.6935 1.70464 19.8548 2.00945 19.5402 2.12873L18.9767 2.34077L19.0553 4.20945C19.0947 5.22993 19.1733 6.86005 19.2126 7.82752L19.2912 9.57692L18.518 10.0805C16.5784 11.3528 15.032 12.6516 13.3545 14.4143C12.804 14.9841 12.2929 15.4215 12.2143 15.3817C12.1488 15.3287 10.8906 15.0239 9.42283 14.6926C6.46099 14.0167 6.09404 14.0167 5.26839 14.6263C4.70486 15.0372 2.96183 17.9131 2.94873 18.4299C2.94873 18.6155 3.68263 19.5432 5.11113 21.1203C6.30373 22.4456 7.32595 23.6384 7.37837 23.7709C7.45701 23.9167 7.35216 24.4998 7.09005 25.4408C6.52652 27.4022 6.13336 29.8938 5.9892 32.2263L5.96298 32.7962L3.53847 34.0552C0.366953 35.7119 0 36.0697 0 37.4878C0 38.1504 0.471797 41.1986 0.602851 41.4239C0.629062 41.4769 0.996015 41.5564 1.41539 41.5962C2.68662 41.742 6.59205 42.3119 7.12937 42.4179C7.41769 42.4841 7.6798 42.6167 7.73222 42.7227C7.78464 42.8287 8.25644 43.8095 8.78066 44.8829C9.67183 46.7384 10.4975 48.1167 11.5852 49.548C11.8473 49.8926 12.057 50.2504 12.057 50.3299C12.057 50.4095 11.7818 51.1384 11.4542 51.9335C10.0126 55.4058 9.96015 55.5649 9.96015 56.2805C9.96015 56.8372 10.0388 57.1155 10.3271 57.5263C10.7203 58.1227 13.2496 60.3492 13.5248 60.3492C13.6166 60.3492 15.0189 59.5143 16.6439 58.4805L19.5927 56.6119L20.6411 57.142C21.6502 57.6588 21.8861 57.7649 23.236 58.348C23.7602 58.5733 26.1716 59.3022 27.587 59.6601C28.0195 59.7661 27.9408 59.5805 29.0941 63.3576C29.7232 65.3854 29.9984 65.8757 30.7978 66.2733C31.3221 66.5516 31.5579 66.5781 33.432 66.5781H35.4896L36.5904 63.1721L37.7044 59.7528L39.3164 59.3287C41.4264 58.7854 42.5665 58.3613 44.5192 57.4203L46.1312 56.6384L48.215 58.0167C49.3683 58.7854 50.5084 59.5143 50.7443 59.6335C51.2948 59.9384 52.4874 59.9516 53.0116 59.6601C53.4834 59.4082 56.0389 57.301 56.1307 57.089C56.17 57.0095 55.8162 56.0022 55.3575 54.836C53.7193 50.7673 53.5751 50.3962 53.6538 50.2372C53.6931 50.1444 54.1256 49.5215 54.6105 48.8588C55.7113 47.3348 56.5894 45.8107 57.4019 43.9552L58.031 42.5239L58.6731 42.4311C59.0139 42.3914 60.2589 42.2323 61.4384 42.0733C63.8367 41.7552 64.2692 41.6227 64.7934 40.9866C65.2914 40.4034 65.37 40.1251 65.6715 38.3492C65.8025 37.5143 65.9467 36.6926 65.986 36.5335C66.0515 36.2155 65.9991 36.1757 63.2338 34.7046C60.5734 33.2866 59.8264 32.8625 59.7347 32.7299C59.6823 32.6504 59.6298 32.1601 59.6298 31.6564C59.6298 29.8805 59.0532 26.6866 58.3717 24.5926C58.2669 24.2878 58.1882 23.9962 58.1882 23.9697C58.1882 23.9299 59.0532 22.9625 60.1016 21.8227C61.1632 20.6829 62.1068 19.5432 62.2116 19.2914C62.513 18.5757 62.4475 17.7408 62.0544 16.9589C61.3336 15.5275 60.3506 13.9637 60.1934 13.9637C60.1016 13.9637 59.3284 14.1095 58.4766 14.3082C57.6378 14.4938 56.3535 14.7589 55.6327 14.9046C54.9119 15.0504 54.0993 15.2227 53.8372 15.3022L53.3523 15.4215L52.199 14.2155C50.9016 12.8637 49.0537 11.3131 47.5204 10.3191L46.4982 9.65644L46.5899 7.86728C46.7865 3.42752 46.7472 3.05644 45.9084 2.28777C45.5153 1.90343 42.3175 0.578125 41.8195 0.578125C41.7671 0.578125 41.5443 0.803429 41.3215 1.06849ZM37.0885 12.7576C41.9113 13.8842 45.9084 16.4155 48.9227 20.2323C52.0811 24.2082 53.7062 29.7215 53.2213 34.7444C52.7233 39.9528 50.7575 44.154 47.1534 47.7456C39.7095 55.1673 27.9802 55.6841 19.8548 48.9516C16.2639 45.9697 13.6821 41.5962 12.7516 36.9046C12.424 35.248 12.424 30.6492 12.7516 29.0721C13.7869 24.2215 16.1197 20.2721 19.8548 17.0516C22.2006 15.0372 25.8047 13.3143 28.8975 12.7179C30.4964 12.3998 30.6799 12.3998 33.4189 12.4396C35.3716 12.4793 36.2366 12.5456 37.0885 12.7576Z" fill="#E1E1E1"/>
<path d="M37.873 17.2624C37.624 17.5407 37.3095 17.9117 37.1653 18.0973C33.0502 23.1864 33.2468 22.9877 32.2901 22.9877H31.5038L29.3676 20.2575C27.5852 17.9913 27.1921 17.5407 26.9562 17.5937C26.5499 17.6864 24.0205 18.5877 23.7453 18.7334C23.4963 18.8792 23.4832 18.7997 24.702 24.6443C25.0952 26.4997 25.1214 26.8708 24.8331 27.1093C24.7282 27.2021 24.5448 27.4407 24.4399 27.6527L24.2564 28.0238L20.7049 28.0503L17.1533 28.0901L16.5766 29.6804C16.2621 30.5551 16 31.3901 16 31.5358C16 31.7612 16.6291 32.1322 19.4729 33.5901L22.9459 35.3792L23.208 36.1612C23.3522 36.5852 23.4308 37.0093 23.3784 37.0889C23.3259 37.1684 22.8148 37.831 22.2251 38.5599C19.5123 41.9395 19.1453 42.4166 19.1453 42.5624C19.1453 42.6551 19.5909 43.4238 20.1413 44.272C20.8883 45.4383 21.1767 45.7961 21.347 45.7431C21.5698 45.6768 25.3442 43.9539 27.179 43.0792C27.7294 42.8142 28.2667 42.6021 28.3584 42.6021C28.673 42.6021 29.8 43.0925 29.8918 43.278C29.9573 43.384 30.2718 44.7491 30.6126 46.313C30.9402 47.8768 31.2941 49.3744 31.3858 49.6262L31.5431 50.0901L33.3647 50.3021C34.3738 50.4214 35.2388 50.4877 35.2912 50.4347C35.3437 50.3949 35.763 48.8045 36.2348 46.9093C36.7066 45.0142 37.1391 43.2913 37.2046 43.066C37.3095 42.6816 38.24 41.966 38.6855 41.9527C38.869 41.9395 41.8702 43.3708 44.0981 44.5371L44.9893 45.0009L46.3916 43.6093C47.4793 42.5093 47.7545 42.1648 47.6497 42.019C47.5842 41.8997 46.4964 40.4684 45.2383 38.825L42.9579 35.8166L43.0759 35.0081L43.1938 34.1865L44.6485 33.4575C45.4611 33.0599 46.8896 32.3575 47.8332 31.8937L49.55 31.0587L49.4713 30.5021C49.432 30.1973 49.3272 29.3226 49.2485 28.5539L49.0913 27.1624L45.0941 27.0696L41.0969 26.9636L40.612 26.4069C40.3368 26.0889 40.1271 25.7178 40.114 25.572C40.114 25.3069 40.5203 23.4515 41.228 20.4431L41.595 18.8925L41.2804 18.6274C41.1101 18.4816 40.9266 18.3623 40.8742 18.3491C40.8217 18.3491 40.4417 18.1238 40.0223 17.8455C39.6029 17.5672 39.0525 17.2093 38.7904 17.0503L38.3055 16.7587L37.873 17.2624ZM34.3083 28.3154C36.6411 28.8985 38.3448 31.3636 38.0958 33.7491C38.0041 34.7431 37.4012 36.0551 36.7197 36.8105C36.012 37.5925 34.5311 38.3346 33.4827 38.4407C31.4382 38.6527 29.3414 37.4202 28.3978 35.4455C28.0308 34.6636 27.9915 34.4648 27.9915 33.2587C27.9915 32.1057 28.0308 31.8407 28.3453 31.178C28.9613 29.8527 30.1539 28.7792 31.5038 28.3551C32.1983 28.1298 33.522 28.1166 34.3083 28.3154Z" fill="#E1E1E1"/>
</svg>
