<svg width="103" height="51" viewBox="0 0 103 51" fill="none" xmlns="http://www.w3.org/2000/svg">
  <path d="M57.5984 50.2974H61.102C63.7298 50.2974 65.1312 49.0532 65.1312 46.8314C65.1312 45.4984 64.3429 44.5208 63.1166 44.0765C63.9925 43.6321 64.7809 42.8323 64.7809 41.4104C64.7809 39.5441 63.2918 38.2999 60.9268 38.2999H57.5984V50.2974ZM15.6422 13.1498H17.7444V8.0842H23.7882V13.1498H25.8903V1.06348H23.7882V6.04019H17.7444V1.06348H15.6422V13.1498ZM3.11662 21.6813H8.81005V19.7261H1.01443V31.7236H3.11662V21.6813ZM11.4378 31.7236H19.4962V29.8573H13.54V26.658H18.9706V24.7917H13.54V21.6813H19.4086V19.815H11.4378V31.7236ZM37.1896 31.7236H39.2918V21.6813H45.1604V31.8124H47.2626V19.7261H37.1896V31.7236ZM53.394 19.7261L52.2553 27.1912C52.1677 27.7244 51.9049 28.4354 51.3794 28.9686C51.029 29.413 50.5035 29.5907 50.0655 29.7684L50.8538 31.9013C51.5546 31.7236 52.1677 31.3681 52.6933 30.9237C53.5692 30.035 54.0947 28.702 54.2699 27.4578L55.2334 21.6813H58.4743V31.8124H60.5765V19.7261H53.394ZM0.664062 50.2974H2.76625L3.2918 43.6321L7.321 50.564H7.40859L11.5254 43.6321L12.1385 50.2974H14.2407L12.6641 37.6778L7.40859 46.6537L1.97793 37.6778L0.664062 50.2974ZM16.5181 44.3431C16.5181 47.7201 19.0582 50.4751 22.7371 50.4751C26.3283 50.4751 28.956 47.6313 28.956 44.2542C28.956 40.8772 26.4159 38.0333 22.7371 38.0333C19.0582 38.0333 16.5181 40.8772 16.5181 44.3431ZM26.6787 44.3431C26.6787 46.6537 25.0144 48.6088 22.6495 48.6088C20.2845 48.6088 18.6203 46.6537 18.6203 44.3431C18.6203 41.9436 20.2845 40.0773 22.6495 40.0773C25.0144 39.9885 26.6787 41.9436 26.6787 44.3431ZM48.3137 45.3206L54.3575 38.3888H51.8173L47.0874 43.9876L48.3137 45.3206ZM47.0874 43.9876L51.8173 50.2974H54.4451L48.7517 42.7434L47.0874 43.9876ZM47.0874 38.2999H44.9852V50.2974H47.0874V38.2999ZM59.7006 40.0773H60.9268C62.1531 40.0773 62.7663 40.6994 62.7663 41.5881C62.7663 42.4768 62.2407 43.2766 61.0144 43.2766H59.7006V40.0773ZM59.7006 48.52V45.1429H61.102C62.5035 45.1429 63.2042 45.8539 63.2042 46.9203C63.2042 47.8979 62.5035 48.6088 61.102 48.6088H59.7006V48.52ZM68.5473 50.2974H70.8246C73.8027 50.2974 75.2042 48.52 75.2042 46.476C75.2042 43.9876 73.4524 42.7434 70.8246 42.7434H70.5619V38.2999H68.4597V50.2974H68.5473ZM77.1312 50.2974H79.2334V38.2999H77.1312V50.2974ZM65.5692 28.7909H72.4889L71.5254 26.9246H66.0947L65.5692 28.7909ZM68.8101 19.1041L62.7663 31.7236H64.8684L69.7736 21.5924L68.8101 19.1041ZM67.8465 21.4147L72.8392 31.7236H75.029L68.7225 19.1041L67.8465 21.4147ZM28.7808 7.10663C28.7808 10.5726 31.4962 13.3275 34.9122 13.3275C37.102 13.3275 38.5035 12.5277 39.7298 11.1946L38.4159 9.77273C37.8903 10.3059 37.3648 10.7503 36.7517 11.0169C36.2261 11.2835 35.7006 11.3724 34.9998 11.3724C32.7225 11.3724 30.9706 9.41725 30.9706 7.10663C30.9706 4.70715 32.7225 2.84088 34.9998 2.84088C35.613 2.84088 36.2261 3.01862 36.7517 3.19636C37.3648 3.46297 37.8027 3.90732 38.3283 4.44054L39.6422 2.84088C38.3283 1.50783 36.9268 0.974615 34.9998 0.974615C31.4086 0.885745 28.7808 3.72958 28.7808 7.10663ZM31.0582 44.3431C31.0582 47.809 33.7735 50.564 37.1896 50.564C39.3794 50.564 40.7808 49.7641 42.0071 48.4311L40.6933 47.098C39.6422 47.9867 38.7663 48.6088 37.2772 48.6088C34.9998 48.6088 33.248 46.6537 33.248 44.3431C33.248 41.9436 34.9998 40.0773 37.2772 40.0773C38.6787 40.0773 39.6422 40.6994 40.6057 41.5881L41.9195 40.0773C40.6933 38.8331 39.467 38.2111 37.2772 38.2111C33.686 38.0333 31.0582 40.8772 31.0582 44.3431ZM23.0874 31.7236H25.1896V26.658H31.2334V31.7236H33.3356V19.7261H31.2334V24.7029H25.1896V19.7261H23.0874V31.7236ZM77.3064 31.7236H79.4086V26.658H85.4524V31.7236H87.5546V19.7261H85.4524V24.7029H79.4086V19.7261H77.3064V31.7236ZM92.6349 28.7909H99.5546L98.5911 26.9246H93.1604L92.6349 28.7909ZM95.7882 19.1041L89.7444 31.7236H91.8465L96.7517 21.5924L95.7882 19.1041ZM94.8246 21.4147L99.9049 31.7236H102.095L95.7882 19.1041L94.8246 21.4147ZM70.8246 44.6097C72.4889 44.6097 73.2772 45.2318 73.2772 46.476C73.2772 47.7201 72.4889 48.3422 70.8246 48.3422H70.5619V44.5208H70.8246V44.6097ZM79.5838 13.1498H81.7736L88.1677 1.15235H85.8903L79.5838 13.1498ZM82.8247 7.46211L78.883 1.06348H76.4305L81.686 9.23951L82.8247 7.46211ZM44.9852 13.1498H47.0874V3.01862H50.5035V1.06348H41.5692V3.01862H44.9852V13.1498ZM63.8173 0.796875L54.9706 8.88403V1.06348H52.8684V13.5053L61.8028 5.32924V13.1498H63.8173V0.796875ZM93.248 13.1498H95.3502V3.01862H98.7663V1.06348H89.7444V3.01862H93.248V13.1498ZM69.5108 13.1498H71.613V3.01862H75.029V1.06348H66.0947V3.01862H69.5984V13.1498H69.5108ZM12.0509 0.796875L3.11662 8.88403V1.06348H1.01443V13.5053L10.0363 5.32924V13.1498H12.0509V0.796875Z" fill="#0C5FBA"/>
</svg>
